<svg width="20" height="20" viewBox="0 0 20 20" fill="none" xmlns="http://www.w3.org/2000/svg">
<path d="M5.50978 17.8018C6.83127 18.564 8.36455 19 9.99967 19C14.9702 19 19 14.9706 19 10C19 5.02945 14.9706 1 10 1C5.02945 1 1 5.02945 1 10C1 11.6351 1.43604 13.1684 2.1982 14.4899L2.20115 14.495C2.27448 14.6222 2.31146 14.6863 2.32821 14.7469C2.34401 14.804 2.34842 14.8554 2.34438 14.9146C2.34003 14.9781 2.31861 15.0441 2.27469 15.1758L1.50586 17.4823L1.50489 17.4853C1.34268 17.972 1.26157 18.2153 1.31938 18.3774C1.36979 18.5188 1.48169 18.6303 1.62305 18.6808C1.78482 18.7384 2.02705 18.6577 2.51155 18.4962L2.51758 18.494L4.82406 17.7251C4.95538 17.6814 5.02215 17.6592 5.0856 17.6548C5.14476 17.6508 5.19579 17.6561 5.25294 17.6719C5.3137 17.6887 5.37785 17.7257 5.50565 17.7994L5.50978 17.8018Z" stroke="black" stroke-width="2" stroke-linecap="round" stroke-linejoin="round"/>
</svg>
