<svg width="48" height="101" viewBox="0 0 48 101" fill="none" xmlns="http://www.w3.org/2000/svg">
<path d="M16.115 6.99569C17.6346 -1.8687 30.3654 -1.86868 31.885 6.99571L46.3969 91.6483C47.2347 96.5355 43.4704 101 38.5119 101H9.48813C4.52961 101 0.76534 96.5355 1.60315 91.6483L16.115 6.99569Z" fill="url(#paint0_linear_860_5849)"/>
<path d="M30.537 88.567C28.7224 90.1393 26.401 91.0033 24 91C18.477 91 14 86.523 14 81C14 75.477 18.477 71 24 71C29.523 71 34 75.477 34 81C34 83.136 33.33 85.116 32.19 86.74L29 81H32C31.9998 79.1562 31.3628 77.3691 30.1967 75.9409C29.0305 74.5127 27.4069 73.5312 25.6003 73.1624C23.7938 72.7935 21.9153 73.06 20.2827 73.9168C18.65 74.7735 17.3634 76.1679 16.6405 77.8641C15.9176 79.5603 15.8028 81.4541 16.3155 83.2251C16.8282 84.9962 17.9369 86.5358 19.4541 87.5836C20.9713 88.6313 22.8038 89.1228 24.6416 88.9749C26.4795 88.827 28.2099 88.0488 29.54 86.772L30.537 88.567Z" fill="black" fill-opacity="0.36"/>
<defs>
<linearGradient id="paint0_linear_860_5849" x1="24" y1="-13.5" x2="24" y2="101" gradientUnits="userSpaceOnUse">
<stop stop-color="#F2F1F1" stop-opacity="0"/>
<stop offset="1" stop-color="#F2F1F1"/>
</linearGradient>
</defs>
</svg>
